<svg xmlns="http://www.w3.org/2000/svg" viewBox="0 0 368 512"><path d="M79.6 0h2c3.6 1.9 5.7 5 7.5 8.4 3.1 5.8 5.3 11.9 6.9 18.2 1.1 4.3 3.4 6.3 7.8 7.1 12.3 2.1 21.2 9.1 27.5 19.8 3.9 6.6 6.9 13.7 9.7 20.8 7.5 19.4 13.2 39.5 20.2 59.1 3.3 9.4 3.5 9.2 13.5 9.3 11.9.1 11.1-1.9 11.2 11.3.1 4.2-1.3 6.3-5.7 6.1-1.4-.1-3.4-.7-3.9 1.1-.4 1.5 1.3 2.6 2.3 3.6 6.3 6.6 14.1 10.5 22.8 12.8 10 2.7 20.1 4.8 29.9 8.1 24.9 8.4 48 20.1 65.9 40 11 12.1 18.5 26.5 24.9 41.4 19.5 45.4 28.6 93.5 35.9 142 3.4 22.7 5.8 45.6 7.7 68.5.9 11.4 2.1 22.9 2 34.4h-175c-.6-2.4.4-4.6 1.2-6.8 3.6-9.3 10.9-14.1 20.1-16.2 3.6-.8 4.1-1.9 1.8-4.8-3.8-4.9-6.4-10.5-8.4-16.4-8.6-25.4-11.9-51.8-16-78.1-3.2-20.1-7.9-39.5-18.3-57.2-7.7-13.1-17.3-24.4-29.4-33.6-4.4-3.3-4.5-3.3-5.2 2.3-.5 3.8-.6 7.6-.9 11.4-1.5 25-1.4 49.9.9 74.8 1.8 19.4 2.5 38.8.8 58.3-1.9 22.4-6.1 44.5-11.7 66.2h-70c1.7-11.6 11.1-21.2 22.3-23.4 6.7-1.3 13.3-.4 19.8 1.1 3.1.7 4.5.2 4.7-3.4 2.1-28.1.7-56-5-83.5-6.6-31.8-12.8-63.7-16.1-96-1.4-13.4-5.4-25.5-11.9-37.1-6.3-11.2-11.7-22.8-17.9-34.1-4.9-8.9-5.8-17.9-2.2-27.4 1.4-3.7 2.8-7.5 4.5-11.1 5-10.3 10.4-20.5 15.3-30.9 2.6-5.4 2-5.9-3.7-6.1-8.6-.2-8.6-.2-8.7-8.7v-3.5c-.1-3.6 1.3-5.6 5.3-5.3 2.7.2 5.3 0 8 .1 3.6.1 4.7-1.5 3.8-5-3-12-14.6-21.9-27-23.4-11.8-1.4-23.3.2-34.7 2.3-3.4.6-5.3-.1-6.6-3.4-2.1-5.3-4.4-10.4-6.8-15.6-1-2.2-1-4 .5-6 16.7-21.7 34.9-41.7 59.7-54.4 2.6-1.3 4.1-3 4.7-5.9 1.6-7.5 3.4-14.9 6.7-21.9 1.6-3.8 3.6-7.2 7.3-9.3z"/></svg>