<svg xmlns="http://www.w3.org/2000/svg" viewBox="0 0 454 188"><path d="M417 19.6c4.1-6.3 9.2-11.4 15.4-15.6 3.4-2.2 5.5-2.2 7.3 1.9 2.9 6.5 5.1 13.1 3.1 20.3-.7 2.6-.2 4.9 1.4 7 1.9 2.5 3.6 5.2 5.3 7.9 4.3 6.5 6 13.2 3.1 20.8-1.3 3.3-1.4 6.8-.7 10.3.7 3.3.5 6.6 0 10-.9 5.4-3.7 9.2-9.2 10.7-4.3 1.1-8.1 3.1-10.9 6.7-.7.9-1.7 1.6-2.9 1.8-4 .5-14.2-8.5-14.1-12.6 0-.7 0-1.3.1-2 .2-12-.5-13.2-11.6-18-2.3-1-4.5-2.2-6.1-4.2-2.2-2.8-4.9-2.5-7.7-1.3s-4.7 3-4.3 6.5c.9 8.1 1.2 16.3 1.2 24.4 0 1 .3 2.1.8 2.8 10.5 15.1 14.4 32.9 19.7 50 4 13.1 11.5 20.2 25 21.1 2.1.2 4.3.7 6.4 1 6 1.1 9.7 4.9 11.4 10.6 2.2 7.1 1.1 8.6-6.3 8.6-7.3 0-14.7 0-22 .1-3 0-5.5-.5-7.7-2.7-3.3-3.2-7.5-4.9-11.6-6.7-4.5-2-8.7-4.5-11.4-8.7-3.8-5.8-8.9-10.4-13.6-15.2-9.6-9.7-19.5-19.1-28.5-29.4-6.5-7.4-10.8-15.6-10.7-25.6 0-3.2-.8-4.5-4-2.9-1 .5-2.2 1-3.3 1-9.5.2-14.2 5.8-17.6 14.1-3 7.2-7.2 13.9-10.8 20.9-2.4 4.6-3.9 9.5-3.9 14.8 0 7.9 1.9 10.8 9.3 13.4 4.6 1.7 9.1 3.4 11.6 8 2.9 5.2 2 6.9-3.8 6.9-7.7.1-15.3 0-23 .1-3 0-5-1-6.4-3.7-1.9-3.5-4.2-6.8-6.3-10.2-3.5-5.6-4.9-11.4-2.5-18.1 2-5.8 1.1-12 .3-17.8-1.3-8.8.1-16.6 5.8-23.4 1.9-2.2 2.1-3.5-1.3-4.1-14-2.6-27.2-7.6-40.1-13.7-.2-.1-.3-.1-.5-.2-10.8-4.2-12.9-3.2-15.9 7.7-2.6 9.5-5.4 18.9-7.4 28.5-2.3 10.6.4 20.8 3.8 30.9 1.3 3.9 5.3 3.7 8.3 4.6 6.6 2 12.4 4.8 15.3 11.6 2.3 5.3 2 6.1-3.7 6.1-5.8 0-11.7-.3-17.5.1-5.5.4-9.6-1.7-14.1-4.8-16.3-10.9-20.9-27.1-22.2-45.2-.8-11.2-6.7-20-13.9-28.1-1.4-1.6-2.7-2.2-4.7-.9-7.1 4.5-15.1 7-22.9 9.9-16.4 6.2-30.6 15.5-41.3 29.5-3.9 5.1-6.6 10.8-7.6 17.2-.9 6 .8 8.6 6.6 10.3 6.5 1.9 9 5 9.8 11.6.3 2.8-.7 4.2-3.5 4.2-9.2 0-18.3 0-27.5-.1-2 0-3.3-1.2-4.5-2.7-4.4-5.4-6.4-11.6-6.6-18.5-.3-11.7 1.1-23.3 3.1-34.8 1.3-7.1 4.6-12.9 11.4-16.1 20-9.4 30.5-27.1 39.9-45.8 1.9-3.8.2-4.3-3-4-9.8.9-18.2 5.2-26 10.7C87.1 74.2 78 82.5 68.9 90.9c-9.9 9.2-21.1 15.6-34.9 16.6-23.4 1.6-35.1-11.9-34-34.3.4-7.6 3-14.7 8.2-20.5 4-4.5 9-6.9 15.2-5.1 5.2 1.5 6.5 4.1 4.4 8.9-.9 2-2.2 3.7-3.2 5.6-1.2 2.2-2.5 4.3-3.4 6.7-3.6 10 1.2 17.2 11.8 18.1 11.2 1 20.4-3.7 28.9-10.4 10.4-8 19.3-17.5 27.3-27.7 12.6-16.1 28.9-24.6 48.8-27.2 7.7-1 14.6-4.4 22-6.5 14-3.9 28.3-6.3 42.9-5.9 6.9.2 13.2-.9 19.8-3.6 16.5-6.7 33.8-6.7 51.1-3.2 13.5 2.7 26.9 6.1 40.4 9.3 7.6 1.8 15.9 1.2 23.7-.5 15-3.3 30-6.3 45.4-6.6 10.1-.2 19.9 1.5 29.2 5.7 6.4 2.9 6.5 2.9 4.5 9.3z"/></svg>